<?xml version="1.0" encoding="utf-8"?>
<?xml-stylesheet type="text/xsl" href="rss1.xsl"?>
<rss version="2.0" xmlns:atom="http://www.w3.org/2005/Atom" xmlns:content="http://purl.org/rss/1.0/modules/content/" xmlns:dc="http://purl.org/dc/elements/1.1/" xmlns:media="http://search.yahoo.com/mrss/">
<channel>
 <title>Getty</title>
 <link>http://www.gettyimg.com/</link>
 <atom:link href="http://www.gettyimg.com/" rel="self" type="application/rss+xml" />

 
                <item>
                <title><![CDATA[【Cinema Center】MOVIE - Menino Maluquinho - O Filme (1995) | 4K (2160p) GLBO WEB-DL AAC2.0 (Português Brasileiro) H.265 (HEVC) DASH - 7.28GB MEGA]]></title>
                <link><![CDATA[https://sharemania.us/threads/menino-maluquinho-o-filme-1995-4k-2160p-glbo-web-dl-aac2-0-portugu%C3%AAs-brasileiro-h-265-hevc-dash-7-28gb-mega.242020/]]></link>
                <description><![CDATA[<article>
<blockquote class="messageText SelectQuoteContainer ugc baseHtml">
<span style="font-size: 22px"><b>Menino.Maluquinh<img src="styles/default/xenforo/smilies/what-48.png" class="mceSmilie" alt="o_O" title="Er... what?    o_O">.Filme.1995.2160p.GLBO.WEB-DL.AAC2.0.H.265-DASH.mkv (Português Brasileiro | Brazilian Portuguese) | MEGA (7.28 GB) | AAC2.0 | GLOBO | HEVC | DASH</b></span><br>
<span style="font-size: 18px"><br>
Título: </span><b><span style="font-size: 18px">Menino Maluquinho - O Filme</span></b><br>
<span style="font-size: 18px"><br>
Ano de lançamento:<b> 1995</b><br>
<br>
Idioma: <b><b>Português (Brasil)</b></b><br>
<br>
Serviço:</span><b><b> <span style="font-size: 18px">GLOBOPLAY (Brasil)</span></b></b><br>
<br>
<div class="ToggleTriggerAnchor bbCodeSpoilerContainer">
<button type="button" class="button bbCodeSpoilerButton ToggleTrigger Tooltip JsOnly" data-target="> .SpoilerTarget"><span>Spoiler: <span class="SpoilerTitle">MediaInfo</span></span></button>
<div class="SpoilerTarget bbCodeSpoilerText">General<br>
Unique ID : 259664634298451238951645051674077496293 (0xC35996E77706D0C0B6DD8537776503E5)<br>
Complete name : Menino.Maluquinh<img src="styles/default/xenforo/smilies/what-48.png" class="mceSmilie" alt="o_O" title="Er... what?    o_O">.Filme.1995.2160p.GLBO.WEB-DL.AAC2.0.H.265-DASH\Menino.Maluquinh<img src="styles/default/xenforo/smilies/what-48.png" class="mceSmilie" alt="o_O" title="Er... what?    o_O">.Filme.1995.2160p.GLBO.WEB-DL.AAC2.0.H.265-DASH.mkv<br>
Format : Matroska<br>
Format version : Version 4<br>
File size : 7.29 GiB<br>
Duration : 1 h 21 min<br>
Overall bit rate : 12.7 Mb/s<br>
Frame rate : 23.976 FPS<br>
Encoded date : 2024-04-11 21:20:24 UTC<br>
Writing application : mkvmerge v82.0 ('I'm The President') 64-bit<br>
Writing library : libebml v1.4.5 + libmatroska v1.7.1<br>
<br>
Video<br>
ID : 1<br>
Format : HEVC<br>
Format/Info : High Efficiency Video Coding<br>
Format profile : Main 10@L5@Main<br>
Codec ID : V_MPEGH/ISO/HEVC<br>
Duration : 1 h 21 min<br>
Bit rate : 12.6 Mb/s<br>
Width : 4 096 pixels<br>
Height : 2 160 pixels<br>
Display aspect ratio : 1.896<br>
Frame rate mode : Constant<br>
Frame rate : 23.976 (23976/1000) FPS<br>
Original frame rate : 23.976 (24000/1001) FPS<br>
Color space : YUV<br>
Chroma subsampling : 4:2:0<br>
Bit depth : 10 bits<br>
Bits/(Pixel*Frame) : 0.059<br>
Stream size : 7.21 GiB (99%)<br>
Title : Portuguese<br>
Language : Portuguese<br>
Default : Yes<br>
Forced : No<br>
Color range : Limited<br>
<br>
Audio<br>
ID : 2<br>
Format : AAC LC<br>
Format/Info : Advanced Audio Codec Low Complexity<br>
Codec ID : A_AAC-2<br>
Duration : 1 h 21 min<br>
Bit rate : 128 kb/s<br>
Channel(s) : 2 channels<br>
Channel layout : L R<br>
Sampling rate : 44.1 kHz<br>
Frame rate : 43.066 FPS (1024 SPF)<br>
Compression mode : Lossy<br>
Stream size : 74.9 MiB (1%)<br>
Title : Portuguese<br>
Language : Portuguese<br>
Default : Yes<br>
Forced : No</div>
</div><br>
<img src="https://i.ibb.co/X514Nv8/2020-1314-o-menino-maluquinho-background.jpg" class="bbCodeImage LbImage" alt="[​IMG]" data-url="https://i.ibb.co/X514Nv8/2020-1314-o-menino-maluquinho-background.jpg" style=""> <br>
<b><span style="font-size: 22px"><br>
Maluquinho é um menino travesso, mas sofre quando seus pais se separam. Mas aí aparece o Vovô Passarinho, que o leva para umas divertidas férias no interior de Minas Gerais.<br>
<br>
Imagens:</span></b><br>
<img src="https://i.ibb.co/thcCGP1/Menino-Maluquinho-O-Filme-1995-2160p-GLBO-WEB-DL-AAC2-0-H-265-DASH-mkv.png" class="bbCodeImage LbImage" alt="[​IMG]" data-url="https://i.ibb.co/thcCGP1/Menino-Maluquinho-O-Filme-1995-2160p-GLBO-WEB-DL-AAC2-0-H-265-DASH-mkv.png" style=""> <br>
<b><span style="font-size: 22px"><br>
<b><span style="font-size: 26px">Download no Mega:</span></b></span><br>
<span style="font-size: 18px">
<div class="bbCodeBlock bbCodeVfcHH HiddenContent">
<div class="attribution type">Hidden Content:</div>
<blockquote>You must reply before you can see the hidden data contained here.</blockquote>
</div></span></b>
<div class="messageTextEndMarker">&nbsp;</div>
</blockquote>
</article>]]></description>
                <author><![CDATA[dash]]></author>
                </item>

                
                <item>
                <title><![CDATA[【Interviews / TV shows / Others】WEB-DL - Angélica: 50 &amp; Tanto 1080p GLBO (GLOBOPLAY) WEB-DL AAC2.0 (Português Brasileiro) x264-DASH - 6.46GB MEGA]]></title>
                <link><![CDATA[https://sharemania.us/threads/ang%C3%A9lica-50-tanto-1080p-glbo-globoplay-web-dl-aac2-0-portugu%C3%AAs-brasileiro-x264-dash-6-46gb-mega.242019/]]></link>
                <description><![CDATA[<article>
<blockquote class="messageText SelectQuoteContainer ugc baseHtml">
<span style="font-size: 22px"><b>Angélica.50.&amp;.Tanto.S01.1080p.GLBO.WEB-DL.AAC2.0.x264-DASH.mkv (Português Brasileiro | Brazilian Portuguese) | MEGA (6.46 GB) | 1080p | AAC2.0 | GLOBO | 1<b><b> Temporadas | 5 Episódios |</b></b> x264 | DASH </b></span><br>
<span style="font-size: 18px"><br>
Título: </span><b><span style="font-size: 18px">Angélica: 50 &amp; Tanto</span></b><br>
<span style="font-size: 18px"><br>
Ano de lançamento:<b> 2023</b><br>
<br>
Idioma: <b><b>Português (Brasil)</b></b><br>
<br>
Serviço:</span><b><b> <span style="font-size: 18px">GLOBOPLAY (Brasil)</span></b></b><br>
<br>
<div class="ToggleTriggerAnchor bbCodeSpoilerContainer">
<button type="button" class="button bbCodeSpoilerButton ToggleTrigger Tooltip JsOnly" data-target="> .SpoilerTarget"><span>Spoiler: <span class="SpoilerTitle">MediaInfo</span></span></button>
<div class="SpoilerTarget bbCodeSpoilerText">General<br>
Unique ID : 251479750267172201746918059488263793925 (0xBD313CF70C59ED4A7DD231FAC9ABED05)<br>
Complete name : Angélica.50.&amp;.Tanto.S01.1080p.GLBO.WEB-DL.AAC2.0.x264-DASH\Angélica.50.&amp;.Tanto.S01E01.Trabalho.1080p.GLBO.WEB-DL.AAC2.0.x264-DASH.mkv<br>
Format : Matroska<br>
Format version : Version 4<br>
File size : 1.30 GiB<br>
Duration : 38 min 53 s<br>
Overall bit rate : 4 790 kb/s<br>
Frame rate : 29.970 FPS<br>
Encoded date : 2024-04-11 21:28:25 UTC<br>
Writing application : mkvmerge v82.0 ('I'm The President') 64-bit<br>
Writing library : libebml v1.4.5 + libmatroska v1.7.1<br>
<br>
Video<br>
ID : 1<br>
Format : AVC<br>
Format/Info : Advanced Video Codec<br>
Format profile : High@L4<br>
Format settings : CABAC / 2 Ref Frames<br>
Format settings, CABAC : Yes<br>
Format settings, Reference frames : 2 frames<br>
Codec ID : V_MPEG4/ISO/AVC<br>
Duration : 38 min 53 s<br>
Bit rate : 4 660 kb/s<br>
Width : 1 920 pixels<br>
Height : 1 080 pixels<br>
Display aspect ratio : 16:9<br>
Frame rate mode : Constant<br>
Frame rate : 29.970 (29970/1000) FPS<br>
Color space : YUV<br>
Chroma subsampling : 4:2:0<br>
Bit depth : 8 bits<br>
Scan type : Progressive<br>
Bits/(Pixel*Frame) : 0.075<br>
Stream size : 1.27 GiB (97%)<br>
Writing library : x264 core 148<br>
Encoding settings : cabac=1 / ref=2 / deblock=1:0:0 / analyse=0x3:0x113 / me=hex / subme=4 / psy=1 / psy_rd=1.00:0.00 / mixed_ref=0 / me_range=16 / chroma_me=1 / trellis=1 / 8x8dct=1 / cqm=0 / deadzone=21,11 / fast_pskip=1 / chroma_qp_offset=0 / threads=24 / lookahead_threads=6 / sliced_threads=0 / nr=0 / decimate=1 / interlaced=0 / bluray_compat=0 / constrained_intra=0 / bframes=1 / b_pyramid=0 / b_adapt=1 / b_bias=0 / direct=1 / weightb=1 / open_gop=0 / weightp=1 / keyint=30 / keyint_min=16 / scenecut=0 / intra_refresh=0 / rc=2pass / mbtree=0 / bitrate=4660 / ratetol=1.0 / qcomp=0.60 / qpmin=0 / qpmax=69 / qpstep=4 / cplxblur=20.0 / qblur=0.5 / ip_ratio=1.40 / pb_ratio=1.30 / aq=1:1.00<br>
Default : Yes<br>
Forced : No<br>
<br>
Audio<br>
ID : 2<br>
Format : AAC LC<br>
Format/Info : Advanced Audio Codec Low Complexity<br>
Codec ID : A_AAC-2<br>
Duration : 38 min 53 s<br>
Bit rate : 128 kb/s<br>
Channel(s) : 2 channels<br>
Channel layout : L R<br>
Sampling rate : 44.1 kHz<br>
Frame rate : 43.066 FPS (1024 SPF)<br>
Compression mode : Lossy<br>
Delay relative to video : -46 ms<br>
Stream size : 35.6 MiB (3%)<br>
Default : Yes<br>
Forced : No<br>
<br>
Text<br>
ID : 3<br>
Format : UTF-8<br>
Codec ID : S_TEXT/UTF8<br>
Codec ID/Info : UTF-8 Plain Text<br>
Duration : 38 min 53 s<br>
Bit rate : 157 b/s<br>
Frame rate : 0.418 FPS<br>
Count of elements : 976<br>
Stream size : 44.8 KiB (0%)<br>
Title : Portuguese (caption)<br>
Language : Portuguese<br>
Default : No<br>
Forced : No</div>
</div><br>
<img src="https://i.ibb.co/fpCyH1f/2023-4018-angelica-50-e-tanto-background.jpg" class="bbCodeImage LbImage" alt="[​IMG]" data-url="https://i.ibb.co/fpCyH1f/2023-4018-angelica-50-e-tanto-background.jpg" style=""> <br>
<b><span style="font-size: 22px"><br>
Uma vida que parece ficção, mas é real. Angélica abre sua casa para receber convidadas como Xuxa e Sandy e compartilhar histórias inéditas de assédio, de fama e de força.<br>
<br>
Imagens:</span></b><br>
<img src="https://i.ibb.co/mb6x24g/Ang-lica-50-Tanto-S01-E01-Trabalho-1080p-GLBO-WEB-DL-AAC2-0-H-264-DASH-mkvpng.png" class="bbCodeImage LbImage" alt="[​IMG]" data-url="https://i.ibb.co/mb6x24g/Ang-lica-50-Tanto-S01-E01-Trabalho-1080p-GLBO-WEB-DL-AAC2-0-H-264-DASH-mkvpng.png" style=""> <br>
<b><span style="font-size: 22px"><br>
<b><span style="font-size: 26px">Download no Mega:</span></b></span><br>
<span style="font-size: 18px">
<div class="bbCodeBlock bbCodeVfcHH HiddenContent">
<div class="attribution type">Hidden Content:</div>
<blockquote>You must reply before you can see the hidden data contained here.</blockquote>
</div></span></b>
<div class="messageTextEndMarker">&nbsp;</div>
</blockquote>
</article>]]></description>
                <author><![CDATA[dash]]></author>
                </item>

                </channel></rss>